<svg width="26" height="32" viewBox="0 0 26 32" fill="none" xmlns="http://www.w3.org/2000/svg">
<path d="M0.817322 19.8918C0.817322 18.2518 1.10148 16.7093 1.66979 15.2641C2.2381 13.819 3.03374 12.5525 4.07294 11.4727C5.11213 10.3929 6.36242 9.54044 7.83191 8.9153C9.3014 8.29016 10.9251 7.98164 12.7113 7.98164C14.3269 7.98164 15.7558 8.24956 17.0061 8.7854C18.2564 9.32123 19.3362 10.0032 20.2536 10.8313V0.390625H25.547V31.0794H21.0086L20.6839 28.4652C20.2373 28.928 19.7259 29.3664 19.1738 29.7642C18.6136 30.162 17.9966 30.5111 17.3308 30.8115C16.6651 31.1119 15.9506 31.3474 15.1956 31.5179C14.4406 31.6884 13.6449 31.7777 12.8006 31.7777C11.0145 31.7777 9.38259 31.4692 7.9131 30.844C6.43549 30.2189 5.17708 29.3664 4.13789 28.2947C3.09057 27.223 2.2787 25.9646 1.70227 24.5195C1.1096 23.0744 0.817322 21.5318 0.817322 19.8918ZM6.11074 19.8675C6.11074 20.9391 6.29747 21.9296 6.67905 22.8308C7.06063 23.732 7.57211 24.5033 8.22161 25.1528C8.87111 25.8023 9.63427 26.2975 10.5111 26.6547C11.3798 27.012 12.3216 27.1906 13.3202 27.1906C14.3107 27.1906 15.2362 27.012 16.1049 26.6547C16.9736 26.2975 17.7368 25.7942 18.3781 25.1528C19.0195 24.5033 19.5391 23.7401 19.9126 22.8471C20.2942 21.954 20.4809 20.9635 20.4809 19.8756C20.4809 18.812 20.2942 17.8378 19.9126 16.9447C19.531 16.0517 19.0195 15.2885 18.37 14.6471C17.7205 14.0057 16.9574 13.5105 16.0805 13.1452C15.2118 12.7798 14.2701 12.6012 13.2715 12.6012C12.2729 12.6012 11.3311 12.7798 10.4624 13.137C9.59367 13.4943 8.83051 13.9976 8.18913 14.639C7.53963 15.2885 7.03627 16.0517 6.66281 16.9447C6.29747 17.8297 6.11074 18.8039 6.11074 19.8675Z" fill="#EA5D4A"/>
</svg>
