<svg width="22" height="25" viewBox="0 0 22 25" fill="none" xmlns="http://www.w3.org/2000/svg">
<path d="M6.09742 17.3327C6.11366 17.7549 6.23543 18.1527 6.479 18.5343C6.71444 18.9159 7.03919 19.2406 7.44513 19.5166C7.85106 19.7927 8.32195 20.0119 8.85779 20.1661C9.39363 20.3285 9.97818 20.4097 10.6033 20.4097C12.2839 20.4097 13.5261 20.158 14.3298 19.6628C15.1255 19.1594 15.5314 18.4856 15.5314 17.625C15.5314 17.146 15.3853 16.7481 15.093 16.4234C14.8007 16.1068 14.3785 15.8389 13.8265 15.6196C13.2744 15.4004 12.6005 15.2137 11.7968 15.0432C11.0011 14.8727 10.0918 14.6941 9.07699 14.5074C8.56551 14.4343 8.0378 14.3369 7.4776 14.2232C6.91741 14.1096 6.36534 13.9553 5.81326 13.7523C5.26119 13.5575 4.73347 13.3058 4.23011 12.9973C3.72675 12.6888 3.28833 12.3153 2.90675 11.8769C2.51705 11.4304 2.21666 10.9027 1.98122 10.2856C1.74578 9.66861 1.63211 8.93793 1.63211 8.09358C1.63211 7.04626 1.81885 6.09637 2.20043 5.22766C2.58201 4.36708 3.16655 3.61203 3.96219 2.98689C4.75782 2.35363 5.78079 1.86651 7.01484 1.5174C8.24888 1.1683 9.72649 0.997803 11.4395 0.997803C12.7873 0.997803 14.0051 1.1683 15.0849 1.5174C16.1646 1.86651 17.0821 2.35363 17.8371 2.97878C18.5922 3.60392 19.1767 4.35084 19.5826 5.21954C19.9886 6.08825 20.1915 7.03814 20.1915 8.06922L14.8981 8.04487C14.8413 7.25735 14.4678 6.61597 13.7859 6.10449C13.1039 5.59301 12.1946 5.34133 11.0661 5.34133C10.3273 5.34133 9.69402 5.4144 9.17442 5.56865C8.65482 5.72291 8.22453 5.91776 7.89166 6.16944C7.55879 6.413 7.30711 6.70527 7.15285 7.03002C6.99048 7.35477 6.90929 7.69576 6.90929 8.04487C6.90929 8.4508 7.01484 8.79179 7.23404 9.06783C7.45325 9.34386 7.778 9.57931 8.21641 9.76604C8.65482 9.95277 9.20689 10.1151 9.87263 10.245C10.5384 10.3749 11.3259 10.4886 12.2271 10.5941C13.315 10.7646 14.3948 10.9838 15.4502 11.2355C16.5138 11.4872 17.4555 11.8526 18.2836 12.3316C19.1118 12.8106 19.7775 13.4438 20.289 14.2232C20.8004 15.0107 21.0521 16.0175 21.0521 17.2515C21.0521 18.518 20.8004 19.6141 20.289 20.5558C19.7775 21.4895 19.063 22.2689 18.1294 22.894C17.2038 23.5192 16.0835 23.9901 14.7763 24.2986C13.4692 24.6071 12.016 24.7695 10.4166 24.7695C8.81719 24.7695 7.42889 24.5503 6.23543 24.1037C5.04198 23.6572 4.0515 23.0808 3.26398 22.3744C2.46834 21.66 1.88379 20.8643 1.48597 19.9794C1.09627 19.0945 0.901428 18.2014 0.901428 17.3002L6.09742 17.3327Z" fill="#F6B31F"/>
</svg>
