<svg width="22" height="25" viewBox="0 0 22 25" fill="none" xmlns="http://www.w3.org/2000/svg">
<path d="M6.09083 17.3327C6.10706 17.7549 6.22885 18.1527 6.47241 18.5343C6.70786 18.9159 7.03261 19.2406 7.43855 19.5166C7.84448 19.7927 8.31536 20.0119 8.8512 20.1661C9.38703 20.3285 9.97158 20.4097 10.5967 20.4097C12.2773 20.4097 13.5195 20.158 14.3232 19.6628C15.1189 19.1594 15.5248 18.4856 15.5248 17.625C15.5248 17.146 15.3787 16.7481 15.0864 16.4234C14.7941 16.1068 14.3719 15.8389 13.8199 15.6196C13.2678 15.4004 12.5939 15.2137 11.7902 15.0432C10.9945 14.8727 10.0853 14.6941 9.07041 14.5074C8.55893 14.4343 8.03121 14.3369 7.47101 14.2232C6.91082 14.1096 6.35875 13.9553 5.80667 13.7523C5.2546 13.5575 4.72688 13.3058 4.22352 12.9973C3.72016 12.6888 3.28175 12.3153 2.90017 11.8769C2.51047 11.4304 2.20196 10.9027 1.97463 10.2856C1.74731 9.66861 1.62552 8.93793 1.62552 8.09358C1.62552 7.04626 1.81225 6.09637 2.19383 5.22766C2.57541 4.36708 3.15997 3.61203 3.95561 2.98689C4.75124 2.35363 5.7742 1.86651 7.00825 1.5174C8.2423 1.1683 9.71991 0.997803 11.433 0.997803C12.7807 0.997803 13.9985 1.1683 15.0783 1.5174C16.1581 1.86651 17.0755 2.35363 17.8305 2.97878C18.5856 3.60392 19.1701 4.35084 19.5761 5.21954C19.982 6.08825 20.185 7.03814 20.185 8.06922L14.8915 8.04487C14.8347 7.25735 14.4613 6.61597 13.7793 6.10449C13.0973 5.59301 12.188 5.34133 11.0595 5.34133C10.3207 5.34133 9.68743 5.4144 9.16783 5.56865C8.64823 5.72291 8.21794 5.91776 7.88508 6.16944C7.55221 6.413 7.30052 6.70527 7.14626 7.03002C6.98389 7.35477 6.9027 7.69576 6.9027 8.04487C6.9027 8.4508 7.00824 8.79179 7.22745 9.06783C7.44666 9.34386 7.77141 9.57931 8.20983 9.76604C8.64824 9.95277 9.2003 10.1151 9.86604 10.245C10.5318 10.3749 11.3193 10.4886 12.2205 10.5941C13.3084 10.7646 14.3882 10.9838 15.4436 11.2355C16.5072 11.4872 17.4489 11.8526 18.2771 12.3316C19.1052 12.8106 19.7709 13.4438 20.2824 14.2232C20.7939 15.0107 21.0455 16.0175 21.0455 17.2515C21.0455 18.518 20.7939 19.6141 20.2824 20.5558C19.7709 21.4895 19.0565 22.2689 18.1228 22.894C17.1973 23.5192 16.0769 23.9901 14.7698 24.2986C13.4626 24.6071 12.0094 24.7695 10.41 24.7695C8.81061 24.7695 7.42231 24.5503 6.22885 24.1037C5.0354 23.6572 4.04491 23.0808 3.2574 22.3744C2.46176 21.66 1.87721 20.8643 1.47939 19.9794C1.08969 19.0945 0.894836 18.2014 0.894836 17.3002L6.09083 17.3327Z" fill="#F6B31F"/>
</svg>
