<svg width="17" height="29" viewBox="0 0 17 29" fill="none" xmlns="http://www.w3.org/2000/svg">
<path d="M4.10351 0.224063L9.27515 0.199707V6.47549H16.306V10.9814H9.2589V20.0013C9.2589 20.8862 9.36445 21.6169 9.56742 22.2015C9.77039 22.7779 10.0545 23.2407 10.4037 23.5735C10.7528 23.9064 11.1668 24.1419 11.6377 24.2799C12.1086 24.4179 12.6119 24.4828 13.1397 24.4828H16.9068L16.8662 28.7695H12.6444C11.4591 28.7695 10.3468 28.6478 9.2995 28.4042C8.2603 28.1606 7.351 27.7141 6.57972 27.0646C5.80844 26.4151 5.19954 25.522 4.74489 24.3935C4.29836 23.265 4.07104 21.8118 4.07104 20.0419V10.9814H0.385132V6.48361H4.11975L4.10351 0.224063Z" fill="#F6B31F"/>
</svg>
