<svg width="26" height="25" viewBox="0 0 26 25" fill="none" xmlns="http://www.w3.org/2000/svg">
<path d="M0.718628 12.8917C0.718628 11.2518 1.02713 9.70921 1.63604 8.26407C2.24494 6.81894 3.09741 5.56053 4.19344 4.48074C5.28947 3.40907 6.58847 2.5566 8.10668 1.93146C9.61676 1.30631 11.2649 0.997803 13.051 0.997803C14.8533 0.997803 16.5096 1.30631 18.0278 1.93146C19.546 2.5566 20.8531 3.40907 21.9491 4.48074C23.0452 5.55241 23.9057 6.81894 24.5228 8.26407C25.1398 9.70921 25.4483 11.2518 25.4483 12.8917C25.4483 14.548 25.1398 16.0905 24.5309 17.5275C23.922 18.9646 23.0614 20.223 21.9572 21.2946C20.8531 22.3663 19.546 23.2188 18.0278 23.8358C16.5096 24.4528 14.8452 24.7613 13.0266 24.7613C11.2405 24.7613 9.60052 24.4528 8.09043 23.8358C6.58847 23.2188 5.28948 22.3744 4.20157 21.2946C3.11366 20.223 2.26119 18.9646 1.64417 17.5194C1.02714 16.0743 0.718628 14.5317 0.718628 12.8917ZM6.01204 12.8674C6.01204 13.9391 6.19877 14.9296 6.56412 15.8226C6.93758 16.7157 7.44094 17.487 8.08232 18.1283C8.7237 18.7778 9.47062 19.2812 10.3231 19.6384C11.1837 20.0038 12.1011 20.1824 13.0916 20.1824C14.0821 20.1824 14.9995 20.0038 15.8601 19.6465C16.7207 19.2893 17.4676 18.786 18.1008 18.1446C18.7422 17.4951 19.2456 16.7238 19.619 15.8226C19.9844 14.9214 20.1711 13.9309 20.1711 12.8593C20.1711 11.7957 19.9844 10.8215 19.619 9.92841C19.2456 9.03535 18.7422 8.27219 18.1008 7.63081C17.4595 6.98943 16.7125 6.49419 15.8438 6.12884C14.9832 5.7635 14.0658 5.58489 13.0916 5.58489C12.1011 5.58489 11.1837 5.7635 10.3231 6.12072C9.4625 6.47795 8.71558 6.98131 8.08232 7.62269C7.44094 8.27219 6.93758 9.03535 6.56412 9.92841C6.19877 10.8377 6.01204 11.812 6.01204 12.8674Z" fill="#EA5D4A"/>
</svg>
