<svg width="22" height="31" viewBox="0 0 22 31" fill="none" xmlns="http://www.w3.org/2000/svg">
<path d="M22 0.704164L13.5322 23.6477C12.6716 26.1726 11.608 27.6665 10.3415 28.6976C9.07498 29.7286 7.57301 30.1346 5.75442 30.1995C5.33224 30.2158 5.2267 30.232 4.59343 30.232C3.55424 30.232 2.49882 30.2158 2.49882 30.2158V25.4988C3.95207 25.4988 3.37562 25.5475 5.20234 25.4014C6.23342 25.3202 6.93163 24.898 7.3944 24.4758C7.85717 24.0536 8.27934 23.6396 8.6528 22.6653L8.72588 22.4624L0.607147 0.696045H6.21718L11.4781 15.2611L16.7797 0.696045H22V0.704164Z" fill="#F6B31F"/>
</svg>
