<svg width="265" height="205" viewBox="0 0 265 205" fill="none" xmlns="http://www.w3.org/2000/svg">
<path d="M290.355 158.985C288.826 170.649 287.141 182.747 280.72 192.609C274.3 202.47 261.667 209.33 250.606 205.323C237.608 200.599 233.39 184.604 231.611 170.9C229.831 157.197 227.33 141.318 215.318 134.486C196.241 123.63 173.289 145.358 151.597 141.997C134.383 139.331 123.796 122.08 116.584 106.22C109.373 90.3591 101.627 72.5152 85.5422 65.8059C71.0261 59.7559 54.4205 64.9267 38.7666 63.4796C26.1072 62.3326 13.5077 56.3195 6.37355 45.8101C-0.760603 35.3008 -1.31297 20.085 6.69376 10.215C17.1147 -2.62389 37.6775 -2.422 52.0635 5.7271C66.4495 13.8762 76.3578 27.8638 86.6753 40.7768C96.9928 53.6899 109.116 66.543 125.114 70.7018C138.508 74.1879 152.586 71.0539 166.366 69.7601C180.146 68.4662 195.586 69.6728 205.272 79.5486C213.94 88.3864 215.637 101.662 220.047 113.221C230.055 139.426 264.237 122.494 286.041 140.13C289.804 143.162 290.355 158.985 290.355 158.985Z" fill="#FDDC4E"/>
</svg>
